
        <svg xmlns="http://www.w3.org/2000/svg" xmlns:xlink="http://www.w3.org/1999/xlink" version="1.1" width="3187.5" height="2142.9242194803364" viewBox="0 0 3187.5 2142.9242194803364">
			
			<g transform="scale(9.375) translate(10, 10)">
				<defs id="SvgjsDefs1025"><linearGradient id="SvgjsLinearGradient1032"><stop id="SvgjsStop1033" stop-color="#8f5e25" offset="0"/><stop id="SvgjsStop1034" stop-color="#fbf4a1" offset="0.5"/><stop id="SvgjsStop1035" stop-color="#8f5e25" offset="1"/></linearGradient><linearGradient id="SvgjsLinearGradient1036"><stop id="SvgjsStop1037" stop-color="#8f5e25" offset="0"/><stop id="SvgjsStop1038" stop-color="#fbf4a1" offset="0.5"/><stop id="SvgjsStop1039" stop-color="#8f5e25" offset="1"/></linearGradient><linearGradient id="SvgjsLinearGradient1040"><stop id="SvgjsStop1041" stop-color="#8f5e25" offset="0"/><stop id="SvgjsStop1042" stop-color="#fbf4a1" offset="0.5"/><stop id="SvgjsStop1043" stop-color="#8f5e25" offset="1"/></linearGradient></defs><g id="SvgjsG1026" featureKey="symbolFeature-0" transform="matrix(1.1951133644932246,0,0,1.1951133644932246,119.02443317753388,-5.9755668224661225)" fill="#000"><path xmlns="http://www.w3.org/2000/svg" d="M52.191,95.368H29.236c-0.776,0-1.404-0.628-1.404-1.404s0.627-1.403,1.404-1.403h21.724l2.404-18.398  c0.102-0.768,0.81-1.302,1.573-1.208c0.769,0.099,1.312,0.804,1.211,1.573l-2.562,19.619C53.493,94.846,52.896,95.368,52.191,95.368  z"/><path xmlns="http://www.w3.org/2000/svg" d="M58.728,45.349c-0.062,0-0.122-0.004-0.184-0.012c-0.769-0.1-1.312-0.805-1.211-1.574l2.745-21.021H9.49l2.745,21.021  c0.102,0.769-0.441,1.474-1.209,1.574c-0.763,0.107-1.473-0.44-1.574-1.209L6.499,21.519c-0.052-0.401,0.07-0.804,0.337-1.108  c0.266-0.304,0.65-0.478,1.055-0.478h53.789c0.404,0,0.788,0.174,1.053,0.478c0.268,0.304,0.391,0.707,0.339,1.108l-2.952,22.608  C60.025,44.833,59.423,45.349,58.728,45.349z"/><path xmlns="http://www.w3.org/2000/svg" d="M30.816,95.368H17.378c-0.705,0-1.301-0.522-1.392-1.222l-2.563-19.617c-0.102-0.768,0.441-1.473,1.209-1.573  c0.767-0.098,1.475,0.441,1.574,1.21l2.405,18.395h12.207c0.775,0,1.404,0.627,1.404,1.403S31.591,95.368,30.816,95.368z"/><path xmlns="http://www.w3.org/2000/svg" d="M63.164,22.741H6.404C5.629,22.741,5,22.113,5,21.337v-4.152c0-0.776,0.629-1.404,1.404-1.404h56.76  c0.774,0,1.404,0.627,1.404,1.404v4.152C64.568,22.113,63.938,22.741,63.164,22.741z M7.808,19.933h53.953V18.59H7.808V19.933z"/><path xmlns="http://www.w3.org/2000/svg" d="M61.679,18.59c-0.775,0-1.405-0.628-1.405-1.404v-2.657c-5.354-0.404-25.149-2.02-29.993-4.172  c-5.039-2.239-11.292-2.547-11.354-2.55L9.294,7.808v9.378c0,0.776-0.629,1.404-1.404,1.404s-1.404-0.628-1.404-1.404V6.404  C6.486,5.628,7.116,5,7.89,5h11.1c0.341,0.014,6.914,0.338,12.429,2.79c4.191,1.863,23.333,3.542,30.356,4.032  c0.736,0.052,1.307,0.664,1.307,1.401v3.962C63.082,17.961,62.453,18.59,61.679,18.59z"/><path xmlns="http://www.w3.org/2000/svg" d="M56.052,75.749H13.408c-0.71,0-1.308-0.531-1.393-1.237L8.355,44.113c-0.05-0.398,0.077-0.798,0.343-1.099  c0.266-0.301,0.648-0.473,1.05-0.473h49.913c0.4,0,0.784,0.171,1.05,0.472c0.267,0.3,0.393,0.699,0.345,1.098l-3.61,30.4  C57.36,75.217,56.763,75.749,56.052,75.749z M14.654,72.941h40.152l3.275-27.592H11.33L14.654,72.941z"/></g><g id="SvgjsG1027" featureKey="nameFeature-0" transform="matrix(1.8738545029293274,0,0,1.8738545029293274,-2.4153976250861358,107.61503792828367)" fill="#000"><path d="M16.191 40.39063 c-8.6719 0 -14.902 -5.8398 -14.902 -14.746 c0 -8.9258 6.2305 -14.766 14.902 -14.766 c6.8555 0 12.207 3.5938 14.121 9.4336 l-6.9531 2.4414 c-0.95703 -3.2031 -3.7109 -5.1172 -7.168 -5.1172 c-4.3164 0 -7.5195 3.0859 -7.5195 8.0078 s3.2031 7.9883 7.5195 7.9883 c3.457 0 6.2109 -1.9141 7.168 -5.1172 l6.9531 2.4414 c-1.9141 5.8398 -7.2656 9.4336 -14.121 9.4336 z M44.493183593750004 40.39063 c-6.5625 0 -11.758 -2.9883 -11.758 -10.781 l0 -18.32 l7.4414 0 l0 17.305 c0 4.082 1.9141 5.293 4.3164 5.293 s4.3164 -1.2109 4.3164 -5.293 l0 -17.305 l7.4414 0 l0 18.32 c0 7.793 -5.1953 10.781 -11.758 10.781 z M73.7140234375 11.289000000000001 c5.8789 0 9.4727 4.3164 9.4727 9.5898 c0 5.4102 -3.5938 9.3945 -9.4727 9.3945 l-5.1953 0 l0 9.7266 l-7.4414 0 l0 -28.711 l12.637 0 z M72.4250234375 24.121000000000002 c2.6563 0 3.6914 -1.25 3.6914 -3.3594 c0 -1.9922 -1.0352 -3.3203 -3.6914 -3.3203 l-3.9063 0 l0 6.6797 l3.9063 0 z M113.735859375 11.289000000000001 l7.4414 0 l0 28.711 l-7.4414 0 l0 -11.191 l-10.586 0 l0 11.191 l-7.4414 0 l0 -28.711 l7.4414 0 l0 11.113 l10.586 0 l0 -11.113 z M137.76076171875 40.39063 c-6.5625 0 -11.758 -2.9883 -11.758 -10.781 l0 -18.32 l7.4414 0 l0 17.305 c0 4.082 1.9141 5.293 4.3164 5.293 s4.3164 -1.2109 4.3164 -5.293 l0 -17.305 l7.4414 0 l0 18.32 c0 7.793 -5.1953 10.781 -11.758 10.781 z M172.0596015625 11.289000000000001 l0 6.4648 l-6.4844 0 l0 22.246 l-7.3633 0 l0 -22.246 l-6.5039 0 l0 -6.4648 l20.352 0 z"/></g><g id="SvgjsG1028" featureKey="sloganFeature-0" transform="matrix(1.0742368323323386,0,0,1.0742368323323386,47.58008067717604,186.88403693221835)" fill="#000"><path d="M10.01 5.888999999999999 l0 2.5781 l-3.3496 0 l0 11.533 l-2.9004 0 l0 -11.533 l-3.3691 0 l0 -2.5781 l9.6191 0 z M21.9481984375 20 l-3.6719 -6.2109 l-0.84961 0 l0 6.2109 l-2.9297 0 l0 -14.111 l5.1172 0 c3.1934 0 4.541 1.8848 4.541 4.2188 c0 1.8945 -1.0742 3.125 -2.9883 3.5352 l4.248 6.3574 l-3.4668 0 z M17.4267984375 8.32 l0 3.3691 l1.7285 0 c1.5625 0 2.1973 -0.66406 2.1973 -1.6797 c0 -1.0059 -0.63477 -1.6895 -2.1973 -1.6895 l-1.7285 0 z M35.0586125 20.19531 c-3.0957 0 -5.5176 -1.582 -5.5176 -5.1367 l0 -9.1699 l2.9297 0 l0 8.7695 c0 2.1484 1.1426 2.9492 2.5879 2.9492 c1.4551 0 2.6074 -0.81055 2.6074 -2.9492 l0 -8.7695 l2.9297 0 l0 9.1699 c0 3.5547 -2.4316 5.1367 -5.5371 5.1367 z M54.4094140625 8.467 l-5.2344 0 l0 3.2031 l4.6387 0 l0 2.5488 l-4.6387 0 l0 3.1934 l5.2344 0 l0 2.5879 l-8.1836 0 l0 -14.111 l8.1836 0 l0 2.5781 z M73.4131140625 20.19531 c-4.1504 0 -7.2168 -2.8223 -7.2168 -7.2559 s3.0664 -7.2461 7.2168 -7.2461 c3.1445 0 5.6641 1.6113 6.6699 4.2871 l-2.7344 0.99609 c-0.625 -1.6406 -2.1191 -2.5879 -3.9355 -2.5879 c-2.4316 0 -4.2969 1.6992 -4.2969 4.5508 s1.8652 4.5605 4.2969 4.5605 c1.8164 0 3.3105 -0.95703 3.9355 -2.5977 l2.7344 0.99609 c-1.0059 2.6758 -3.5254 4.2969 -6.6699 4.2969 z M89.9804875 20.19531 c-3.0957 0 -5.5176 -1.582 -5.5176 -5.1367 l0 -9.1699 l2.9297 0 l0 8.7695 c0 2.1484 1.1426 2.9492 2.5879 2.9492 c1.4551 0 2.6074 -0.81055 2.6074 -2.9492 l0 -8.7695 l2.9297 0 l0 9.1699 c0 3.5547 -2.4316 5.1367 -5.5371 5.1367 z M107.0165890625 5.888999999999999 c2.7637 0 4.4824 2.0508 4.4824 4.5605 c0 2.5684 -1.7188 4.4922 -4.4824 4.4922 l-2.9395 0 l0 5.0586 l-2.9297 0 l0 -14.111 l5.8691 0 z M106.5282890625 12.4902 c1.4648 0 2.1484 -0.81055 2.1484 -2.0801 c0 -1.2207 -0.68359 -2.0703 -2.1484 -2.0703 l-2.4512 0 l0 4.1504 l2.4512 0 z M122.099596875 5.888999999999999 c2.7637 0 4.4824 2.0508 4.4824 4.5605 c0 2.5684 -1.7188 4.4922 -4.4824 4.4922 l-2.9395 0 l0 5.0586 l-2.9297 0 l0 -14.111 l5.8691 0 z M121.611296875 12.4902 c1.4648 0 2.1484 -0.81055 2.1484 -2.0801 c0 -1.2207 -0.68359 -2.0703 -2.1484 -2.0703 l-2.4512 0 l0 4.1504 l2.4512 0 z M137.5635046875 20.19531 c-4.1504 0 -7.2168 -2.832 -7.2168 -7.2559 c0 -4.4336 3.0664 -7.2461 7.2168 -7.2461 c4.1406 0 7.207 2.8125 7.207 7.2461 c0 4.4238 -3.0664 7.2559 -7.207 7.2559 z M137.5635046875 17.5098 c2.4316 0 4.2969 -1.709 4.2969 -4.5703 c0 -2.8516 -1.8652 -4.5508 -4.2969 -4.5508 s-4.2969 1.6992 -4.2969 4.5508 c0 2.8613 1.8652 4.5703 4.2969 4.5703 z M152.66605625 17.4121 l4.4238 0 l0 2.5879 l-7.3535 0 l0 -14.111 l2.9297 0 l0 11.523 z M167.8467078125 20.19531 c-4.1504 0 -7.2168 -2.832 -7.2168 -7.2559 c0 -4.4336 3.0664 -7.2461 7.2168 -7.2461 c4.1406 0 7.207 2.8125 7.207 7.2461 c0 4.4238 -3.0664 7.2559 -7.207 7.2559 z M167.8467078125 17.5098 c2.4316 0 4.2969 -1.709 4.2969 -4.5703 c0 -2.8516 -1.8652 -4.5508 -4.2969 -4.5508 s-4.2969 1.6992 -4.2969 4.5508 c0 2.8613 1.8652 4.5703 4.2969 4.5703 z M186.123059375 20.19531 c-4.0723 0 -7.0703 -2.8125 -7.0703 -7.2168 c0 -4.4629 3.0664 -7.2852 7.2168 -7.2852 c2.7246 0 4.9805 1.2012 6.2109 3.3203 l-2.5684 1.3672 c-0.74219 -1.4453 -2.0703 -2.1387 -3.6426 -2.1387 c-2.4414 0 -4.2773 1.6797 -4.2773 4.668 c0 2.8809 1.7188 4.7363 4.3848 4.7363 c1.8066 0 3.4668 -0.89844 3.8672 -2.959 l-3.8574 0 l0 -2.3535 l6.6309 0 l0 7.666 l-2.3047 0 l0 -1.9531 c-0.9082 1.3379 -2.4316 2.1484 -4.5898 2.1484 z M208.9110234375 5.888999999999999 l-4.6387 7.3535 l0 6.7578 l-2.9395 0 l0 -6.6895 l-4.668 -7.4219 l3.2422 0 l2.8809 4.8047 l2.8906 -4.8047 l3.2324 0 z"/></g>
			</g>
		</svg>
	